<?xml version="1.0" standalone="no"?>
<!DOCTYPE svg PUBLIC "-//W3C//DTD SVG 20010904//EN"
 "http://www.w3.org/TR/2001/REC-SVG-20010904/DTD/svg10.dtd">
<svg version="1.0" xmlns="http://www.w3.org/2000/svg"
 width="300.000000pt" height="300px" viewBox="0 0 300.000000 300.000000"
 preserveAspectRatio="xMidYMid meet">
<metadata>
Created by potrace 1.10, written by Peter Selinger 2001-2011
</metadata>
<g transform="translate(0.000000,300.000000) scale(0.100000,-0.100000)"
fill="#000000" stroke="none">
<path d="M335 2971 c-146 -52 -270 -191 -304 -341 -14 -62 -14 -2208 0 -2270
18 -80 68 -169 129 -230 63 -63 173 -124 211 -118 19 3 10 11 -50 42 -88 45
-160 109 -205 185 -70 115 -66 46 -66 1261 0 1072 0 1098 20 1155 52 152 146
240 328 305 34 12 62 24 62 26 0 11 -81 1 -125 -15z"/>
<path d="M2630 2965 c164 -63 247 -128 307 -241 18 -34 40 -67 48 -74 13 -11
13 -7 1 34 -45 150 -214 290 -363 302 l-58 4 65 -25z"/>
<path d="M1451 2970 c-47 -11 -82 -40 -109 -88 -19 -34 -24 -62 -29 -153 -3
-61 -10 -105 -14 -97 -4 7 -22 68 -39 133 -50 191 -59 205 -136 205 -67 0 -87
-24 -119 -142 -15 -57 -38 -141 -50 -188 -38 -140 -39 -149 -19 -171 11 -12
30 -19 55 -19 54 0 67 8 90 51 26 53 64 55 84 4 18 -41 41 -55 89 -55 38 0 76
28 76 55 0 10 12 4 35 -19 38 -39 84 -52 142 -42 21 4 59 6 84 6 30 -1 52 5
62 15 20 19 41 19 57 0 10 -12 39 -15 140 -15 141 0 160 8 160 66 0 50 -20 66
-91 73 -55 5 -64 9 -67 27 -3 19 3 22 54 26 70 6 99 33 90 82 -9 43 -24 54
-76 57 -57 3 -70 8 -70 25 0 8 1 14 3 14 1 1 29 3 62 6 44 4 65 11 78 26 22
26 22 60 -2 89 -18 22 -28 24 -128 27 -123 4 -160 -6 -168 -43 -3 -14 -8 -37
-11 -52 l-6 -28 -15 30 c-42 82 -120 117 -212 95z m132 -42 c27 -14 57 -69 57
-103 0 -29 -2 -30 -45 -30 -28 0 -45 4 -45 12 0 7 -5 24 -12 38 -8 18 -19 25
-40 25 -46 0 -61 -49 -56 -181 3 -88 7 -111 22 -128 38 -42 82 -15 88 54 3 40
3 40 -29 37 -32 -3 -33 -2 -33 37 l0 41 80 0 80 0 0 -125 0 -125 -39 0 c-36 0
-39 2 -33 23 5 21 4 21 -23 -5 -22 -22 -37 -28 -72 -28 -104 0 -138 57 -138
235 0 157 27 216 107 235 36 9 103 3 131 -12z m-342 -213 c32 -121 59 -223 59
-227 0 -5 -22 -8 -49 -8 -52 0 -61 10 -61 68 0 20 -4 22 -64 22 l-65 0 -7 -45
-6 -45 -52 0 -52 0 60 230 61 231 59 -3 59 -3 58 -220z m739 185 l0 -40 -85 0
-85 0 0 -56 0 -56 80 4 80 3 0 -44 0 -44 -80 7 -81 7 3 -63 3 -63 81 4 82 3 4
-41 4 -41 -133 0 -133 0 0 230 0 230 130 0 130 0 0 -40z m-292 -144 c-4 -25
-27 -28 -41 -4 -9 13 -7 21 6 36 9 10 17 27 18 38 0 11 5 4 10 -15 6 -18 9
-43 7 -55z m-163 47 c31 -36 31 -39 -5 -47 -17 -3 -33 -7 -37 -8 -13 -5 -14
27 -4 55 13 34 16 33 46 0z m-15 -188 c16 -19 3 -40 -16 -24 -15 13 -19 39 -5
39 5 0 14 -7 21 -15z"/>
<path d="M1115 2815 c-4 -22 -13 -67 -21 -100 -7 -32 -12 -61 -10 -63 2 -2 21
-2 42 0 l39 3 -21 100 c-20 96 -21 99 -29 60z"/>
<path d="M972 2340 c-29 -12 -37 -34 -24 -68 6 -15 13 -48 16 -74 l6 -48 -261
0 c-159 0 -268 -4 -280 -10 -40 -22 -49 -61 -49 -215 l0 -147 29 -29 c29 -29
31 -29 148 -30 65 -1 168 -3 228 -5 61 -2 113 -4 117 -4 4 0 5 -7 1 -16 -6
-16 13 -117 27 -146 13 -24 -8 -26 -270 -27 l-235 -1 -27 -30 -28 -30 0 -156
0 -156 29 -29 29 -29 1072 0 c1164 0 1112 -2 1138 55 8 16 12 80 12 171 l0
146 -29 29 c-16 16 -38 29 -48 30 -10 1 -128 1 -263 0 -135 0 -251 4 -259 8
-11 7 -11 17 0 60 11 45 11 52 -5 70 -10 11 -30 20 -45 19 -88 -2 -150 5 -155
18 -3 8 -2 14 2 15 4 0 173 2 376 4 400 4 405 5 426 61 6 14 10 90 10 169 0
138 -1 145 -24 172 l-24 28 -304 5 c-193 3 -302 9 -302 15 1 6 5 28 8 50 9 54
-20 95 -68 95 -17 0 -42 7 -54 16 -20 14 -24 14 -44 0 -29 -21 -102 -21 -118
-1 -9 11 -27 15 -59 13 -40 -3 -48 -7 -61 -35 l-15 -31 -24 19 c-13 10 -30 19
-38 19 -8 0 -27 7 -44 16 -28 14 -32 14 -63 -6 -29 -17 -44 -19 -102 -14 -42
3 -76 12 -87 22 -17 15 -21 14 -60 -7 l-43 -23 -61 26 c-69 29 -68 29 -101 16z
m78 -35 c0 -8 -7 -15 -15 -15 -12 0 -15 -13 -15 -60 0 -47 -3 -60 -15 -60 -12
0 -15 13 -15 60 0 53 -2 60 -20 60 -20 0 -26 11 -13 23 3 4 26 7 50 7 32 0 43
-4 43 -15z m180 -61 l0 -75 -37 3 -38 3 0 50 c0 44 3 50 23 53 14 2 22 10 22
23 0 10 7 19 15 19 12 0 15 -15 15 -76z m250 64 c-1 -59 -36 -80 -38 -23 -1
29 2 35 18 35 11 0 20 -6 20 -12z m234 -4 c10 -9 16 -33 16 -59 0 -53 -19 -75
-66 -75 l-34 0 0 75 0 75 34 0 c19 0 42 -7 50 -16z m180 -16 c3 -13 1 -24 -4
-26 -13 -5 -13 -59 0 -67 18 -11 10 -26 -12 -23 -19 2 -23 9 -23 38 0 19 -3
40 -7 46 -12 18 3 54 22 54 10 0 20 -10 24 -22z m-780 -11 c13 -10 17 -24 14
-57 -3 -44 -4 -45 -38 -45 -34 0 -35 1 -38 45 -3 33 1 47 14 57 10 7 21 13 24
13 3 0 14 -6 24 -13z m197 3 c15 -8 19 -22 19 -61 l0 -50 -37 3 c-33 3 -38 6
-38 28 0 16 8 28 23 35 12 5 22 13 22 17 0 12 -18 10 -26 -3 -4 -8 -10 -7 -18
1 -8 8 -6 15 8 26 24 17 22 17 47 4z m240 0 c28 -15 24 -33 -6 -26 -14 4 -25
3 -25 -2 0 -5 11 -14 25 -20 14 -6 25 -18 25 -25 0 -35 -57 -50 -80 -22 -17
21 -4 32 20 17 11 -6 21 -8 25 -3 3 5 -3 12 -14 16 -36 11 -44 32 -22 54 24
24 26 24 52 11z m260 0 c15 -8 19 -22 19 -60 l0 -50 -41 0 c-38 0 -40 1 -37
28 2 16 12 31 26 37 12 5 22 13 22 17 0 11 -18 10 -25 -2 -9 -15 -25 -12 -25
5 0 7 8 19 18 24 21 13 20 13 43 1z m160 0 c11 -6 19 -21 19 -35 0 -20 -5 -25
-25 -25 -16 0 -25 -6 -25 -15 0 -8 5 -15 10 -15 6 0 10 5 10 10 0 6 7 10 16
10 9 0 14 -7 12 -17 -2 -13 -13 -18 -38 -18 -34 0 -35 1 -38 45 -3 33 1 47 14
57 21 16 21 16 45 3z m-590 -32 l1 -33 10 33 c14 40 42 45 32 5 -23 -92 -30
-108 -52 -111 -22 -3 -31 13 -11 20 10 3 2 53 -18 104 -3 9 2 14 16 14 17 0
21 -6 22 -32z m1233 -144 c13 -13 16 -43 16 -170 0 -141 -2 -156 -20 -174 -20
-20 -29 -20 -1096 -18 -1052 3 -1076 3 -1090 22 -11 15 -14 56 -14 170 0 125
3 152 17 168 15 17 62 18 1094 18 966 0 1079 -2 1093 -16z m-1299 -396 c4 -3
1 -16 -5 -28 -8 -16 -15 -19 -24 -11 -7 6 -50 9 -102 8 -65 -2 -98 1 -123 12
l-34 16 29 6 c37 8 250 6 259 -3z m-357 -46 c4 -26 22 -20 22 9 0 12 7 19 20
19 24 0 24 -3 4 -42 -9 -17 -17 -47 -18 -67 -1 -25 -6 -37 -18 -39 -15 -3 -18
4 -18 35 -1 21 -7 49 -15 63 -19 34 -19 52 3 48 9 -2 18 -13 20 -26z m459 16
c13 -17 15 -116 2 -124 -5 -3 -25 -7 -44 -9 l-35 -3 0 74 0 74 34 0 c18 0 38
-6 43 -12z m71 0 c-7 -19 -38 -22 -38 -4 0 10 9 16 21 16 12 0 19 -5 17 -12z
m122 -8 c0 -11 5 -20 12 -20 9 0 9 -3 0 -12 -15 -15 -16 -65 -1 -74 16 -10 -6
-28 -25 -21 -11 4 -16 19 -16 47 0 33 -3 40 -19 40 -16 0 -20 -8 -23 -42 -2
-29 -8 -43 -17 -43 -11 0 -15 14 -15 53 -1 55 3 58 57 54 11 -1 17 5 17 18 0
11 7 20 15 20 8 0 15 -9 15 -20z m60 2 c0 -13 7 -18 23 -18 20 1 22 -4 25 -56
2 -47 0 -58 -13 -58 -11 0 -15 11 -15 45 0 25 -4 45 -10 45 -5 0 -10 -20 -10
-45 0 -32 -4 -45 -14 -45 -11 0 -15 18 -18 75 -3 66 -1 75 15 75 10 0 17 -8
17 -18z m155 1 c13 -12 16 -28 12 -61 -6 -53 -14 -62 -61 -67 l-36 -3 0 74 0
74 34 0 c19 0 42 -8 51 -17z m-731 -45 c15 -41 -3 -82 -36 -86 -19 -2 -30 3
-38 18 -14 26 -5 86 13 94 27 11 52 0 61 -26z m48 -17 c-2 -31 1 -41 13 -41
11 0 15 12 15 46 0 32 4 44 13 42 7 -3 12 -24 12 -58 l0 -54 -35 0 c-35 -1
-35 0 -41 49 -7 54 -3 68 14 62 7 -2 11 -21 9 -46z m138 32 c0 -7 -7 -16 -15
-19 -10 -4 -15 -20 -15 -45 0 -28 -4 -39 -15 -39 -12 0 -15 13 -15 58 0 56 0
57 30 58 19 1 30 -4 30 -13z m644 5 c3 -7 7 -34 10 -59 l5 -47 -39 0 c-30 -1
-40 4 -45 19 -8 24 1 38 32 50 14 5 21 14 17 20 -4 8 -9 8 -17 0 -15 -15 -27
-14 -27 3 0 24 57 36 64 14z m60 -20 l14 -33 1 28 c1 24 24 47 36 36 6 -7 -30
-128 -42 -140 -6 -6 -20 -8 -30 -5 -17 7 -17 8 0 20 16 12 16 17 2 56 -8 23
-15 49 -15 56 0 25 20 14 34 -18z m-504 -34 c0 -73 -24 -70 -28 4 -2 42 0 52
12 52 13 0 16 -12 16 -56z m-168 -14 c0 -16 1 -36 2 -42 1 -7 -10 -15 -23 -16
-22 -4 -23 -2 -16 35 8 44 12 53 26 53 5 0 10 -13 11 -30z m1272 -92 c11 -6
24 -16 28 -22 4 -6 8 -78 8 -160 0 -125 -3 -152 -17 -168 -15 -17 -62 -18
-1094 -18 -966 0 -1079 2 -1093 16 -13 13 -16 43 -16 174 0 153 1 159 22 174
20 14 138 16 1081 16 764 0 1065 -4 1081 -12z"/>
<path d="M1180 2224 c0 -21 4 -33 10 -29 6 3 10 19 10 36 0 16 -4 29 -10 29
-5 0 -10 -16 -10 -36z"/>
<path d="M1670 2245 c0 -33 4 -45 13 -42 7 2 12 20 12 42 0 22 -5 40 -12 43
-9 2 -13 -10 -13 -43z"/>
<path d="M1080 2225 c0 -19 5 -35 10 -35 6 0 10 16 10 35 0 19 -4 35 -10 35
-5 0 -10 -16 -10 -35z"/>
<path d="M444 2077 c-2 -7 -3 -76 -2 -152 l3 -140 1075 0 1075 0 0 150 0 150
-1073 3 c-874 2 -1074 0 -1078 -11z m176 -22 c0 -4 -7 -20 -16 -37 -23 -43
-16 -158 11 -188 l19 -21 -80 3 -79 3 -3 100 c-4 147 -6 145 78 145 39 0 70
-2 70 -5z m168 -7 c-7 -32 -43 -37 -58 -8 -10 18 -8 20 25 20 23 0 34 -4 33
-12z m387 2 c3 -5 1 -20 -6 -32 -19 -35 -12 -148 11 -179 17 -25 18 -27 2 -30
-9 -2 -120 -3 -245 -1 l-228 3 21 28 c14 20 20 45 20 80 0 31 4 51 11 51 6 0
9 -6 6 -14 -3 -8 -3 -17 1 -21 4 -4 8 -19 8 -33 2 -55 4 -65 10 -59 4 4 8 36
10 72 3 63 3 65 -21 65 -16 0 -25 6 -25 15 0 8 9 15 19 15 11 0 26 8 33 19 7
10 22 21 33 24 38 9 334 7 340 -3z m561 -14 c-3 -13 -9 -31 -12 -40 -3 -9 -1
-16 4 -16 6 0 12 10 14 22 4 27 50 52 78 43 62 -20 65 -69 9 -130 l-42 -45 42
0 c34 0 41 -3 41 -20 0 -18 -7 -20 -63 -20 -35 0 -66 3 -70 6 -11 11 14 61 48
94 37 36 47 80 19 80 -9 0 -18 -9 -21 -20 -3 -12 -14 -20 -27 -20 -16 0 -18
-2 -7 -9 8 -5 21 -6 30 -3 14 5 14 3 2 -11 -7 -9 -17 -15 -21 -12 -13 8 -39
-88 -29 -107 8 -15 -1 -17 -89 -20 -82 -3 -233 5 -194 10 19 3 14 49 -8 65
-20 14 -20 14 0 35 21 23 29 112 10 112 -5 0 -10 7 -10 15 0 13 23 15 151 15
l151 0 -6 -24z m344 20 c0 -10 -33 -36 -45 -36 -8 0 -19 9 -25 20 -10 18 -8
20 30 20 22 0 40 -2 40 -4z m100 -32 c-18 -28 -21 -43 -15 -72 4 -20 7 -50 6
-66 0 -17 7 -38 16 -48 23 -25 12 -32 -51 -29 -28 1 -29 2 -11 15 16 12 18 27
18 125 l0 111 29 0 30 0 -22 -36z m385 -89 l0 -120 -138 -3 -137 -3 20 33 c24
40 27 139 5 182 -8 15 -15 30 -15 32 0 3 60 3 133 2 l132 -3 0 -120z m-1854
96 c21 -17 24 -28 24 -94 0 -88 -11 -107 -65 -107 -54 0 -65 19 -65 107 0 66
3 77 24 94 13 10 31 19 41 19 10 0 28 -9 41 -19z m567 -1 c19 -18 22 -32 22
-95 0 -85 -12 -105 -65 -105 -48 0 -65 29 -65 108 0 53 4 67 25 87 29 30 54
32 83 5z m160 -7 c23 -31 14 -65 -30 -110 l-42 -43 42 0 c35 0 42 -3 42 -20 0
-18 -7 -20 -65 -20 -62 0 -65 1 -65 24 0 13 17 43 40 69 41 47 52 87 24 87 -9
0 -18 -9 -21 -20 -3 -11 -14 -20 -25 -20 -15 0 -19 6 -16 27 6 50 84 67 116
26z m553 8 c19 -15 24 -30 26 -82 5 -85 -10 -113 -62 -117 -53 -5 -65 14 -65
103 0 71 10 97 40 108 26 10 37 7 61 -12z m139 -91 l0 -110 -25 0 c-24 0 -25
2 -25 75 0 68 -2 75 -20 75 -11 0 -20 7 -20 15 0 8 7 15 15 15 8 0 20 9 27 20
7 11 21 20 30 20 16 0 18 -12 18 -110z m143 101 c53 -21 64 -171 14 -203 -21
-13 -75 -9 -91 8 -24 23 -20 44 9 44 16 0 25 -6 25 -16 0 -24 35 -12 38 13 3
20 0 22 -26 17 -39 -8 -62 16 -62 64 0 42 6 54 35 70 25 14 28 14 58 3z m-217
-129 c1 -10 2 -27 3 -39 0 -13 10 -32 21 -43 11 -11 15 -22 10 -25 -6 -4 -10
-3 -10 2 0 4 -21 6 -47 4 l-46 -3 21 27 c12 15 22 42 22 60 0 46 23 61 26 17z"/>
<path d="M852 1943 l-2 -112 -32 -4 -33 -4 33 -1 c19 -1 35 3 38 11 2 7 3 60
1 118 l-3 104 -2 -112z"/>
<path d="M974 1936 c-13 -33 4 -46 56 -46 50 0 51 1 48 28 -3 25 -7 27 -51 30
-35 2 -49 -1 -53 -12z m96 -16 c0 -17 -7 -20 -45 -20 -38 0 -45 3 -45 20 0 17
7 20 45 20 38 0 45 -3 45 -20z"/>
<path d="M1544 1936 c-13 -34 4 -47 53 -44 44 3 48 5 48 28 0 23 -4 25 -48 28
-35 2 -49 -1 -53 -12z m96 -16 c0 -17 -7 -20 -45 -20 -38 0 -45 3 -45 20 0 17
7 20 45 20 38 0 45 -3 45 -20z"/>
<path d="M654 1997 c-3 -8 -4 -41 -2 -73 2 -44 7 -59 18 -59 12 0 15 14 15 69
0 47 -4 71 -12 73 -7 3 -15 -2 -19 -10z"/>
<path d="M1220 1935 c0 -57 3 -75 14 -75 18 0 26 22 26 75 0 53 -8 75 -26 75
-11 0 -14 -18 -14 -75z"/>
<path d="M1934 1996 c-3 -7 -4 -40 -2 -72 2 -44 7 -59 18 -59 12 0 16 16 18
73 2 60 0 72 -13 72 -9 0 -18 -6 -21 -14z"/>
<path d="M2230 1975 c0 -29 3 -36 18 -33 11 2 17 13 17 33 0 20 -6 31 -17 33
-15 3 -18 -4 -18 -33z"/>
<path d="M1370 1590 c0 -11 7 -20 15 -20 8 0 15 9 15 20 0 11 -7 20 -15 20 -8
0 -15 -9 -15 -20z"/>
<path d="M1770 1615 c0 -48 23 -64 35 -24 9 29 -2 69 -20 69 -11 0 -15 -12
-15 -45z"/>
<path d="M1042 1598 c2 -18 8 -33 13 -33 6 0 11 15 13 33 3 24 -1 32 -13 32
-12 0 -16 -8 -13 -32z"/>
<path d="M434 1447 c-2 -7 -3 -76 -2 -152 l3 -140 1075 0 1075 0 0 150 0 150
-1073 3 c-874 2 -1074 0 -1078 -11z m231 -16 l30 -2 -28 -24 c-26 -23 -26 -25
-7 -25 11 0 23 7 26 15 4 8 15 15 25 15 17 0 19 -9 19 -105 l0 -105 -25 0
c-24 0 -25 2 -25 75 l0 75 -27 0 c-26 -1 -26 -2 -10 -14 12 -9 19 -33 23 -77
3 -35 8 -67 11 -71 2 -5 -44 -7 -104 -6 l-108 3 0 120 0 120 30 6 c27 5 54 5
170 0z m163 0 c9 -1 8 -9 -4 -33 -9 -18 -20 -35 -24 -38 -14 -10 -42 -99 -35
-110 4 -7 23 -18 41 -26 57 -24 44 -44 -27 -44 -48 0 -59 3 -52 13 16 19 21
85 14 165 -4 40 -5 74 -4 76 3 3 47 1 91 -3z m374 2 l27 -5 -20 -27 c-26 -36
-29 -160 -4 -197 l15 -24 -159 0 c-176 0 -168 -3 -138 58 7 16 8 29 1 40 -5 9
-11 44 -13 77 -1 33 -7 62 -12 63 -5 2 -9 7 -9 11 0 9 273 12 312 4z m190 -1
c16 -6 15 -11 -9 -51 l-26 -44 -15 36 c-8 21 -18 37 -23 37 -22 0 -6 19 19 23
15 2 29 4 32 5 3 0 13 -2 22 -6z m385 2 c38 -6 41 -8 30 -25 -6 -10 -17 -19
-24 -19 -6 0 -15 -5 -18 -10 -10 -15 5 -50 20 -50 10 0 13 -11 11 -37 -1 -20
0 -54 4 -75 l7 -38 -173 0 -174 0 20 35 c22 40 25 55 10 55 -5 0 -10 -7 -10
-15 0 -8 -5 -15 -11 -15 -6 0 -9 -9 -6 -20 4 -16 0 -20 -19 -20 -17 0 -24 6
-24 20 0 16 -7 20 -35 20 -31 0 -35 3 -35 26 0 14 15 52 33 85 26 48 37 59 57
59 26 0 26 -1 22 -65 -3 -50 -1 -65 9 -65 11 0 13 15 11 62 -2 35 -8 67 -13
73 -5 5 -9 12 -9 16 0 8 263 11 317 3z m152 -3 l24 -1 -27 -21 c-25 -19 -26
-25 -24 -105 1 -56 6 -88 15 -96 21 -17 15 -28 -15 -28 l-28 0 4 99 c3 75 0
107 -11 129 -15 30 -14 30 12 27 14 -2 37 -4 50 -4z m619 -6 c9 -3 12 -36 12
-119 0 -95 -3 -115 -16 -120 -9 -3 -66 -6 -127 -5 -72 1 -103 4 -87 9 18 6 4
8 -47 9 -66 1 -73 3 -73 21 0 11 18 40 40 64 42 45 55 96 25 96 -8 0 -15 -9
-15 -20 0 -15 -7 -20 -25 -20 -17 0 -25 6 -25 17 0 28 31 53 66 53 71 0 86
-66 29 -129 -19 -21 -35 -40 -35 -43 0 -2 14 -3 31 0 19 3 28 9 25 17 -2 7 4
31 15 53 20 39 20 42 3 77 -11 25 -14 39 -7 43 11 7 188 4 211 -3z m-462 -4
c-10 -16 -45 -19 -57 -5 -9 12 -5 14 25 14 21 0 35 -4 32 -9z m132 -10 c-9
-15 -15 -17 -25 -9 -20 16 -15 28 12 28 22 0 24 -2 13 -19z m-1318 -66 c0 -37
4 -65 10 -65 6 0 10 -9 10 -20 0 -11 -4 -20 -10 -20 -5 0 -10 -9 -10 -20 0
-15 -7 -20 -25 -20 -18 0 -25 5 -25 20 0 16 -7 20 -35 20 -45 0 -46 18 -3 105
28 57 36 65 60 65 28 0 28 -1 28 -65z m412 48 c23 -20 26 -148 4 -178 -16 -22
-79 -26 -98 -7 -20 20 -23 148 -4 177 20 30 69 34 98 8z m548 -88 l0 -105 -25
0 c-24 0 -25 2 -25 75 0 68 -2 75 -20 75 -11 0 -20 7 -20 15 0 8 9 15 20 15
11 0 23 7 26 15 4 8 15 15 25 15 17 0 19 -9 19 -105z m177 75 c7 -14 13 -51
13 -83 0 -48 -4 -62 -25 -82 -13 -14 -33 -25 -43 -25 -21 0 -72 36 -72 51 0
12 47 12 55 -1 12 -19 35 -10 35 13 0 21 -4 23 -31 19 -21 -3 -34 1 -44 14
-19 25 -19 74 1 102 23 33 93 28 111 -8z m149 -5 c43 -104 -8 -207 -87 -175
-36 15 -46 50 -14 50 13 0 25 -5 27 -12 6 -18 38 -1 38 20 0 15 -6 17 -35 14
-30 -4 -36 -1 -45 23 -25 67 0 115 61 115 36 0 41 -3 55 -35z m-786 -159 c0
-2 3 -12 6 -21 6 -14 0 -16 -43 -13 -45 3 -49 5 -39 20 7 11 23 18 43 18 18 0
33 -2 33 -4z"/>
<path d="M1059 1313 c33 -3 41 -8 44 -29 4 -21 4 -21 3 3 -1 26 -4 28 -44 29
l-42 1 39 -4z"/>
<path d="M1025 1260 c-4 -6 8 -10 30 -10 22 0 34 4 30 10 -3 6 -17 10 -30 10
-13 0 -27 -4 -30 -10z"/>
<path d="M1402 1315 c-15 -33 -15 -35 3 -35 10 0 15 10 15 30 0 37 -3 37 -18
5z"/>
<path d="M1574 1306 c-3 -8 -4 -23 -1 -33 3 -12 5 -9 6 9 1 24 5 27 44 31 l42
4 -43 1 c-29 1 -44 -3 -48 -12z"/>
<path d="M1595 1260 c-4 -6 8 -10 30 -10 22 0 34 4 30 10 -3 6 -17 10 -30 10
-13 0 -27 -4 -30 -10z"/>
<path d="M831 1310 c-8 -24 -7 -30 5 -30 9 0 14 10 14 30 0 17 -2 30 -4 30 -2
0 -9 -13 -15 -30z"/>
<path d="M1257 1373 c-4 -3 -7 -37 -7 -75 0 -51 3 -68 14 -68 18 0 26 22 26
75 0 62 -13 89 -33 68z"/>
<path d="M1964 1367 c-9 -25 0 -62 16 -62 10 0 15 10 15 34 0 36 -21 54 -31
28z"/>
<path d="M2112 1343 c4 -51 33 -54 33 -3 0 26 -5 36 -18 38 -16 3 -18 -2 -15
-35z"/>
<path d="M1427 1006 c-108 -40 -186 -147 -195 -266 -4 -57 0 -74 25 -130 65
-142 204 -206 352 -161 128 39 203 140 204 278 1 162 -116 283 -278 290 -42 2
-85 -2 -108 -11z m229 -51 c173 -107 176 -350 5 -452 -131 -78 -284 -40 -365
91 -80 128 -23 305 119 373 73 35 173 30 241 -12z"/>
<path d="M1449 946 c-85 -30 -143 -102 -155 -189 -17 -122 72 -238 199 -261
61 -11 143 18 193 68 50 50 79 132 68 193 -26 146 -173 237 -305 189z m158
-37 c52 -25 96 -76 112 -131 46 -151 -121 -302 -265 -239 -61 28 -92 55 -115
106 -46 100 1 217 106 266 53 24 109 24 162 -2z"/>
<path d="M1479 819 c-19 -19 -20 -29 -15 -102 6 -88 23 -117 70 -117 17 1 15
4 -11 15 -30 13 -58 47 -47 58 8 7 44 -4 44 -14 0 -5 8 -9 19 -9 12 0 20 9 23
24 4 22 2 23 -32 19 -33 -5 -38 -2 -49 25 -25 61 4 112 63 112 46 0 66 -32 66
-105 0 -57 -3 -69 -25 -90 -14 -15 -19 -25 -11 -25 32 0 46 35 46 113 0 64 -3
80 -20 97 -28 28 -93 27 -121 -1z"/>
<path d="M1524 787 c-9 -25 0 -62 16 -62 10 0 15 10 15 34 0 36 -21 54 -31 28z"/>
<path d="M2170 1011 c-86 -28 -151 -83 -192 -161 -34 -66 -32 -185 4 -255 83
-160 277 -209 429 -108 146 96 167 324 41 446 -57 54 -114 79 -190 83 -37 2
-78 0 -92 -5z m188 -47 c194 -96 202 -365 14 -467 -182 -99 -392 28 -392 237
0 186 211 314 378 230z"/>
<path d="M2178 950 c-50 -15 -96 -50 -127 -96 -101 -154 9 -357 194 -357 130
0 228 97 229 228 2 153 -151 269 -296 225z m135 -36 c160 -54 176 -288 25
-365 -117 -60 -255 4 -289 133 -25 92 33 198 126 232 53 19 82 19 138 0z"/>
<path d="M2141 830 c-13 -11 -21 -23 -18 -26 3 -3 15 4 26 15 43 43 51 30 51
-88 l0 -108 -25 0 c-24 0 -25 1 -25 73 0 66 -2 74 -19 74 -12 0 -21 8 -24 23
-4 22 -4 22 -6 -2 0 -13 5 -29 13 -35 9 -6 17 -37 21 -71 7 -68 13 -78 46 -73
22 3 25 9 29 63 3 33 3 85 0 115 -4 46 -8 55 -25 57 -11 2 -31 -6 -44 -17z"/>
<path d="M2268 836 c-10 -7 -18 -19 -18 -25 0 -7 -4 -10 -8 -7 -12 7 -12 -37
0 -51 8 -10 8 -17 0 -25 -19 -19 -14 -66 10 -93 17 -20 31 -25 70 -25 68 0 80
20 71 129 -5 67 -10 85 -27 96 -25 18 -75 19 -98 1z m90 -12 c23 -16 31 -67
12 -79 -6 -4 -4 -12 5 -21 21 -21 19 -60 -5 -84 -24 -24 -77 -26 -102 -3 -22
20 -25 81 -3 89 12 5 12 9 -1 29 -37 56 36 110 94 69z"/>
<path d="M2300 781 c0 -25 19 -38 31 -20 12 19 6 33 -14 37 -11 2 -17 -3 -17
-17z"/>
<path d="M2302 688 c4 -43 33 -46 33 -3 0 21 -5 31 -18 33 -15 3 -18 -2 -15
-30z"/>
<path d="M695 996 c-88 -28 -144 -74 -186 -156 -28 -53 -33 -172 -10 -230 20
-49 78 -119 119 -143 32 -19 33 -21 17 -34 -12 -8 -32 -11 -54 -7 -29 5 -40 1
-55 -15 -18 -20 -18 -22 3 -77 11 -31 21 -66 21 -78 0 -43 27 -66 78 -66 26 0
65 0 87 -1 48 -2 56 -2 169 -1 49 1 94 7 102 13 7 6 16 27 20 48 3 20 12 46
20 58 8 12 14 29 14 36 0 24 -33 45 -65 41 -16 -3 -37 -5 -45 -6 -8 -1 -32 2
-53 6 -25 6 -47 4 -64 -3 -25 -11 -68 -4 -116 21 -15 7 -22 -1 -48 -59 -22
-48 -29 -76 -26 -100 5 -30 3 -33 -19 -33 -21 0 -24 4 -24 40 0 22 -11 65 -25
96 -14 31 -25 58 -25 60 0 2 11 4 25 4 19 0 26 -7 31 -27 11 -46 17 -49 29
-12 9 26 18 35 38 37 15 2 27 6 27 10 0 4 37 7 83 7 69 0 91 4 139 28 105 52
162 144 162 262 0 118 -57 211 -161 261 -63 31 -146 39 -208 20z m168 -32 c55
-18 124 -82 150 -137 87 -183 -60 -393 -263 -374 -139 12 -239 122 -240 262 0
92 37 160 122 224 54 41 154 51 231 25z m157 -625 c0 -12 -7 -19 -20 -19 -18
0 -20 -7 -20 -55 0 -51 -2 -55 -24 -55 -23 0 -24 2 -23 76 l0 76 28 -6 c16 -3
31 -1 34 4 9 15 25 2 25 -21z m-256 -1 c28 -40 21 -58 -24 -58 -41 0 -49 -11
-30 -40 9 -13 12 -13 21 3 14 23 39 22 39 -3 0 -48 -83 -50 -101 -2 -12 31 -6
87 12 108 18 22 66 17 83 -8z m136 3 c5 -11 10 -45 10 -77 0 -55 -1 -56 -25
-52 -14 3 -28 1 -31 -3 -10 -17 -33 -9 -49 15 -21 31 -7 60 35 74 31 11 41 32
15 32 -8 0 -15 -4 -15 -10 0 -5 -9 -10 -20 -10 -11 0 -20 6 -20 13 0 39 81 53
100 18z"/>
<path d="M699 935 c-49 -16 -109 -67 -136 -118 -24 -44 -24 -160 0 -204 78
-144 270 -173 378 -56 45 47 62 93 62 158 0 158 -152 269 -304 220z m132 -27
c44 -13 122 -75 113 -89 -3 -5 0 -9 7 -9 7 0 9 -3 6 -7 -4 -3 -2 -12 4 -20 7
-7 12 -37 13 -66 2 -170 -209 -268 -332 -154 -33 30 -72 114 -72 152 0 45 44
129 82 159 62 46 109 56 179 34z"/>
<path d="M654 836 c-33 -15 -47 -44 -33 -67 6 -10 9 -6 9 13 0 51 86 68 116
23 22 -33 12 -67 -31 -107 -19 -17 -35 -34 -35 -37 0 -4 18 -5 40 -3 35 4 40
2 40 -17 0 -19 -6 -21 -69 -21 -68 0 -68 0 -63 26 2 14 22 44 44 67 23 26 38
50 36 62 -4 27 -31 25 -38 -3 -3 -13 -8 -23 -12 -23 -23 2 -27 0 -22 -14 3 -8
-2 -34 -11 -59 -9 -24 -14 -50 -10 -56 4 -7 43 -11 103 -11 54 0 112 -1 129
-1 19 -1 41 6 53 17 18 17 20 28 17 102 -3 59 -9 89 -19 100 -20 19 -82 20
-111 0 -18 -12 -25 -12 -42 -2 -34 22 -59 25 -91 11z m240 -28 c9 -12 16 -26
16 -30 0 -15 -43 -8 -55 9 -14 19 -35 9 -35 -18 0 -16 5 -18 25 -13 62 15 92
-83 39 -125 -33 -26 -55 -26 -84 -3 -37 30 -40 151 -4 187 24 23 80 19 98 -7z"/>
<path d="M824 706 c-9 -24 0 -51 19 -54 14 -3 17 4 17 32 0 26 -4 36 -15 36
-9 0 -18 -6 -21 -14z"/>
<path d="M840 265 c-14 -17 -5 -36 15 -28 16 6 21 43 6 43 -5 0 -14 -7 -21
-15z"/>
<path d="M2028 428 c-34 -12 -45 -48 -42 -143 2 -58 6 -73 24 -87 26 -21 77
-23 115 -6 21 9 31 9 46 0 10 -7 37 -12 60 -12 29 0 50 -7 70 -24 34 -29 60
-25 92 14 17 20 28 25 42 19 41 -16 85 -10 111 16 22 22 24 30 18 82 -10 96
-15 98 -227 97 -97 -1 -177 2 -177 7 0 29 -88 53 -132 37z m89 -33 c26 -17 37
-62 28 -115 -9 -55 -27 -70 -83 -70 l-47 0 2 98 c0 53 2 98 2 99 5 8 81 -2 98
-12z m151 -47 c5 -7 12 -41 14 -75 l3 -61 -45 -5 c-54 -6 -72 6 -68 47 2 25 9
32 36 40 32 9 45 36 17 36 -8 0 -15 -4 -15 -10 0 -5 -9 -10 -20 -10 -23 0 -24
4 -10 31 12 22 71 27 88 7z m76 -4 c3 -9 6 -27 6 -40 0 -39 18 -28 22 14 2 30
7 38 26 40 19 3 23 0 18 -15 -3 -10 -12 -47 -21 -83 -22 -85 -31 -100 -60
-100 -28 0 -33 17 -9 34 15 11 14 19 -5 83 -12 38 -21 73 -21 77 0 13 38 5 44
-10z m184 4 c18 -18 14 -38 -8 -38 -11 0 -20 5 -20 10 0 6 -7 10 -15 10 -27 0
-16 -19 20 -34 27 -12 35 -21 35 -40 0 -57 -100 -74 -108 -18 -4 26 19 30 38
7 7 -8 16 -12 21 -9 18 10 8 24 -26 38 -58 25 -44 86 20 86 17 0 36 -5 43 -12z"/>
<path d="M2060 305 c0 -58 2 -66 18 -63 14 3 17 14 17 63 0 49 -3 60 -17 63
-16 3 -18 -5 -18 -63z"/>
<path d="M2223 273 c-15 -6 -17 -43 -3 -43 12 0 24 25 18 38 -1 5 -9 7 -15 5z"/>
<path d="M1169 413 c-10 -11 -14 -44 -14 -105 0 -82 2 -91 24 -109 12 -10 26
-17 30 -14 4 2 48 4 97 3 111 0 180 0 199 1 8 1 42 1 74 0 33 -1 64 2 70 6 7
4 18 2 25 -4 8 -7 36 -9 72 -5 32 3 72 5 88 4 46 -1 56 15 56 89 0 73 -2 77
-77 129 -34 24 -58 28 -68 12 -3 -5 -19 -7 -36 -3 -20 4 -35 0 -48 -11 -16
-14 -108 -29 -158 -25 -7 0 -34 1 -60 2 -36 2 -52 7 -66 25 -20 24 -75 30 -95
10 -9 -9 -15 -9 -24 0 -18 18 -73 15 -89 -5z m85 -58 c13 -81 19 -84 30 -15
11 63 12 65 44 68 l32 3 0 -100 c0 -94 -1 -101 -20 -101 -18 0 -20 7 -21 68
-1 74 -3 73 -19 -10 -9 -45 -15 -58 -30 -58 -14 0 -19 11 -25 46 -12 83 -25
96 -22 22 3 -65 2 -68 -20 -68 -22 0 -23 2 -23 101 l0 100 33 -3 c30 -3 33 -6
41 -53z m536 27 c0 -26 3 -28 30 -24 35 5 36 1 43 -85 5 -61 4 -63 -19 -63
-23 0 -24 3 -24 61 0 81 -24 77 -28 -4 -3 -49 -6 -57 -22 -57 -19 0 -20 8 -20
100 0 93 1 100 20 100 15 0 20 -7 20 -28z m-80 -1 c0 -10 8 -22 18 -26 16 -6
16 -7 0 -19 -23 -17 -25 -91 -3 -100 28 -10 16 -27 -17 -24 -33 3 -33 4 -36
61 -2 31 -7 57 -12 57 -6 0 -10 7 -10 15 0 8 5 15 10 15 6 0 10 9 10 20 0 13
7 20 20 20 13 0 20 -7 20 -19z m-220 -40 c5 -11 10 -38 10 -60 0 -66 -49 -101
-96 -67 -23 17 -27 103 -5 129 19 24 78 22 91 -2z m137 7 c8 -6 13 -35 13 -74
0 -61 -1 -64 -24 -64 -22 0 -23 3 -22 58 1 44 -2 57 -14 57 -12 0 -15 -13 -15
-57 0 -54 -1 -58 -22 -58 -22 0 -23 4 -23 74 l0 74 47 0 c27 0 54 -4 60 -10z"/>
<path d="M1426 315 c-11 -28 -7 -62 9 -75 19 -16 28 4 23 51 -3 36 -22 49 -32
24z"/>
<path d="M2966 315 c-85 -137 -110 -168 -167 -209 -34 -25 -74 -48 -89 -51
-15 -3 -36 -15 -46 -26 -16 -18 -16 -19 3 -19 11 0 52 16 90 35 85 42 173 131
209 210 30 65 30 108 0 60z"/>
</g>
</svg>
